<svg xmlns="http://www.w3.org/2000/svg" id="Layer_2" data-name="Layer 2" viewBox="0 0 428.71 306.38">
  <defs>
    <style>
      .cls-1{fill:#010101}.cls-3{fill:#fbed22}.cls-4{fill:#819098}.cls-5{fill:#92c9ed}.cls-6{fill:#231f20}.cls-7{fill:#96a4ab}.cls-8{fill:#5b6970}
    </style>
  </defs>
  <g id="Layer_1-2" data-name="Layer 1">
    <path d="M428.32 59.06c-.25-.73-5.55-8.62-15.91-23.65a.825.825 0 0 0-.34-.3.926.926 0 0 0-.44-.11l-177.69.06c-.16 0-.31.05-.42.14a.49.49 0 0 0-.2.35l-.23 2.7.08 2.18a.605.605 0 0 0 .52.57c1.99.23 4.3.31 6.94.25 4.12-.1 60.02-.08 167.69.06.16 0 .31.04.45.11s.26.17.34.3l12.5 18.36s.05.1.06.16c.01.05 0 .11-.02.16-.03.06-.06.1-.1.14-.05.04-.1.06-.16.08L368.68 73.2c-.15.03-.28.12-.36.23-.08.11-.12.25-.09.38l1.05 4.91c.02.06.04.12.08.17.04.06.09.1.15.14.06.03.13.05.2.07.07.01.14 0 .21 0a965.1 965.1 0 0 0 26.71-6.11c.32-.07.55-.08.68-.03.34.14.25.31-.27.52-1.65.67-4.31 1.91-7.97 3.72-23.99 11.84-48.22 23.79-72.7 35.84-.14.07-.28.12-.43.15-.08.02-.15.03-.23.04-.14.02-.28.02-.42-.01-.02-.01-.03-.01-.05 0-.04 0-.09 0-.13-.01-.39-.08-.79-.15-1.18-.22s-.79-.14-1.19-.2c-.39-.07-.79-.13-1.19-.18-.39-.06-.78-.11-1.18-.16-.01-.01-.03-.01-.04-.01-.42-.05-.84-.1-1.27-.14-.53-.05-1.07-.1-1.6-.14-.37-.03-.73-.05-1.09-.08-.45-.03-.89-.05-1.33-.07-.45-.01-.89-.03-1.33-.04-2.55-.05-5.08.05-7.6.31-1.04.1-2.08.23-3.12.39-3.28.5-6.54 1.27-9.78 2.3-.35.11-.7.22-1.05.34-.65.22-1.3.44-1.94.69-.89.32-1.77.66-2.65 1.03-.9.38-1.85.62-2.83.72-28.07 2.84-56.11 5.68-84.11 8.51-3.09.31-5.32.46-6.69.45-.13 0-.26-.04-.38-.13a.952.952 0 0 1-.32-.34l-1.11-1.9a.92.92 0 0 1-.11-.33c0-.11.01-.22.04-.33.04-.1.1-.2.18-.27s.18-.13.28-.15l32.98-7.76c.08-.02.15-.05.21-.09.06-.04.11-.09.15-.15.05-.06.07-.13.09-.2 0-.06 0-.13-.01-.2l-1.12-4.88a.417.417 0 0 0-.08-.18c-.04-.05-.1-.09-.16-.13a.794.794 0 0 0-.22-.06c-.07 0-.15 0-.23.02l-35.32 8.08a.71.71 0 0 1-.43-.04.747.747 0 0 1-.34-.27L112.28 16.51c-.15-.23-.35-.43-.6-.56-.24-.13-.51-.2-.79-.2H34.05c-.15 0-.3-.07-.41-.18a.62.62 0 0 1-.18-.44l-.04-8.27c0-.16.06-.32.17-.43.11-.12.26-.18.41-.18h88.82c.16 0 .31.04.44.11.14.07.26.18.34.31l22.63 34.01c.12.17.28.32.47.42.18.1.39.15.6.15l68.52-.06c.17 0 .33-.05.45-.14.11-.09.18-.22.19-.35l.21-2.7-.03-2.49c0-.14-.05-.27-.14-.36a.47.47 0 0 0-.35-.15h-65.77c-.15 0-.3-.04-.44-.11s-.25-.18-.34-.3L127.06.77a1.7 1.7 0 0 0-.62-.57c-.25-.13-.52-.2-.81-.2H27.94a.56.56 0 0 0-.56.56v20.77c0 .18.07.35.2.47.12.13.29.2.47.2l79.76.06c.16 0 .32.04.46.11.13.07.25.17.33.3l14.06 21.47c.32.48.5 1.09.5 1.75l.14 20.83c.01.79-.19.85-.6.18-4.99-8.12-9.97-16.24-14.95-24.36-3.61-5.89-5.79-9.2-6.54-9.93-3.09-2.99-7.2-4.21-12.33-3.66h-44c-2.59 0-4.64.63-6.15 1.9-1.12.93-1.93 2.7-2.45 5.31a244.81 244.81 0 0 0-2.86 17.95c-.03.24-.15.47-.33.63-.19.16-.43.25-.68.24-3.97-.11-7.74-.08-11.31.09-2.18.11-4.2.61-6.04 1.52a57.842 57.842 0 0 0-8.99 5.55C1.43 64.07-.55 67.75.13 73 .1 116.57.12 160.13.19 203.69c0 .15.05.29.15.39.09.11.22.17.35.17l4.76.11a.5.5 0 0 0 .36-.16c.1-.1.16-.24.17-.39l.3-3.38a.58.58 0 0 1 .17-.37c.1-.09.23-.15.36-.15l13.16-.14c.19 0 .39.04.56.12.17.08.33.21.45.36s.21.33.26.52c.04.19.05.39.01.58-.44 2.37.05 3.42 1.48 3.17 1.08-.19 1.69-.28 1.85-.27.62 0 1.25.01 1.87.04.07 0 .13 0 .19-.03s.12-.06.17-.1c.04-.05.08-.1.1-.16.03-.06.04-.12.04-.18l.24-43.27c.01-.72.31-.87.9-.46l10.3 7.19c.14.09.24.21.32.34.06.13.1.25.1.38v.05c-.04 8.17.06 13.07.32 14.7 3.69 23.32 16.05 39.93 37.07 49.83.62.29.82.48.59.58 7.64 3.27 16.05 5.08 24.88 5.08s17.32-1.83 24.98-5.13c-.03-.09.16-.23.55-.42 21.13-10.14 33.52-26.94 37.17-50.39.02-.13.08-.24.17-.33l.02-.02c.11-.09.24-.14.37-.14l19.63-.12c.17 0 .33-.05.46-.14.12-.09.19-.21.2-.34l.2-2.46c.68-2.57-.25-3.57-2.79-3-1.05.24-2.45.17-4.2-.2a.622.622 0 0 1-.35-.22.621.621 0 0 1-.14-.39l-.12-31.02a.665.665 0 0 1 .67-.67h22.72c.09 0 .18.02.26.05.08.03.15.08.22.14.06.07.11.14.14.22.04.08.05.17.05.26v31.17c0 .17-.07.34-.2.46-.12.13-.3.2-.48.2l-3.77.04c-.13 0-.25.05-.35.15a.68.68 0 0 0-.18.37l-.31 2.44c.26.55.34 1.3.24 2.23-.01.1 0 .2.04.29.03.09.08.18.15.25.07.08.15.13.24.18.09.04.19.06.29.06l30.64.17c.13 0 .25.05.34.14.09.1.14.23.14.36l.11 9.63c0 .15.06.29.16.4.1.1.23.17.37.17l5.02.06a.492.492 0 0 0 .39-.17.76.76 0 0 0 .12-.19.62.62 0 0 0 .04-.23v-9.73c0-.08.02-.15.04-.22.03-.07.07-.13.12-.18.04-.05.1-.09.16-.12.07-.03.13-.04.2-.04l3.8.05c.14 0 .27.05.37.16.11.1.18.24.2.4.55 3.53 1.3 6.92 2.26 10.15.09.32.19.64.28.96.15.5.32 1.01.48 1.5.28.83.57 1.64.87 2.45.61 1.61 1.28 3.18 1.99 4.71.18.38.37.76.55 1.14.19.37.38.75.57 1.12a50.245 50.245 0 0 0 2.19 3.86c.24.39.49.79.75 1.17.75 1.15 1.54 2.28 2.37 3.38 8.58 11.37 20.05 17.85 25.13 19.84 9.89 3.87 21.11 5.29 24.78 5.29s14.82-.9 25.58-5.3c8.01-3.27 13.3-7.75 15.98-10.05 3.05-2.62 7.84-7.29 12.27-14.2 6.54-10.17 9.74-21.42 9.61-33.73-.07-6.64-1.19-13.18-3.35-19.63-6.05-18.03-18.34-31.02-36.86-38.99-.08-.04-.15-.07-.2-.11-.23-.16-.16-.32.18-.49 32.26-15.85 64.48-31.67 96.68-47.44 2.64-1.29 4.32-2.28 5.06-2.99 1.74-1.64 2.2-3.64 1.38-6Zm-180.86 67.76c.22-.16.49-.26.76-.28l13.93-1.29c1.1-.1 1.22.2.36.89-7.8 6.34-13.81 14.43-18.04 24.28-.1.24-.28.45-.51.6-.22.15-.49.23-.76.23h-6.3c-.1 0-.21-.03-.3-.08a.38.38 0 0 1-.13-.09c-.04-.03-.07-.07-.1-.11-.01-.03-.02-.05-.03-.07 0-.02-.03-.04-.03-.07a.453.453 0 0 1-.03-.16c-.01-.1.01-.21.05-.3l10.61-22.93c.11-.25.29-.46.52-.62Zm-92.44-32.91c.13.07.25.18.33.31l16.46 25.55c.18.28.1.42-.24.42l-8.74.12c-.32 0-.63-.08-.91-.23a1.95 1.95 0 0 1-.7-.64l-16.2-25.12c-.24-.37-.14-.56.3-.56l9.26.04c.15 0 .3.04.44.11ZM130.06 55.3l20.73 31.79c.18.27.11.41-.22.41h-20.53c-.17 0-.34-.07-.47-.2a.72.72 0 0 1-.2-.47l-.17-31.27c0-1.06.28-1.15.86-.26ZM96.38 36.62c0-.62.17-.67.49-.14l20.29 33.06c.28.47.15.7-.39.69l-19.94-.17a.463.463 0 0 1-.45-.46V36.62Zm.08 39.79c.1-.1.24-.16.38-.16h25.51c.21 0 .41.08.55.23.15.14.23.34.23.55v9.95c0 .14-.05.27-.15.37-.1.09-.23.15-.37.15H96.46s-.04-.01-.05-.01c-.02-.01-.04-.02-.05-.04-.02-.01-.03-.03-.04-.05 0-.02-.01-.04-.01-.06V76.8c-.01-.15.05-.29.15-.39Zm40.36 17.4c.16 0 .31.04.44.11.14.07.25.18.33.31l13.03 20.1c.67 1.03.53 1.15-.42.37l-16.18-13.38c-.25-.21-.56-.32-.89-.33-5.7-.15-12.78-.14-21.25.01-8 .15-18.43.08-31.31-.19-5.42-.11-18.55-.07-39.38.12-.06 0-.13-.01-.19-.04a.425.425 0 0 1-.17-.1c-.05-.04-.08-.1-.11-.16a.526.526 0 0 1-.04-.18l-.04-6.13c0-.15.06-.3.17-.4.11-.11.26-.17.41-.17l95.6.06Zm9.49 26.39c-3.77.06-7.55.08-11.33.06-.75-.01-1.47-.12-2.15-.33-.31-.1-.61-.22-.9-.36-.96-.47-1.91-.97-2.85-1.5a.469.469 0 0 1-.18-.19.239.239 0 0 1-.07-.13.482.482 0 0 1 .03-.39l4.26-7.94c.03-.06.08-.11.13-.14a.37.37 0 0 1 .18-.08.408.408 0 0 1 .35.1l12.68 10.55c.28.23.23.34-.15.35ZM39.79 52.98c.06-.37.23-.43.49-.17l6.67 6.64c.08.07.16.13.25.18.1.04.19.06.29.07.1 0 .2-.01.28-.04.09-.03.17-.09.23-.15l3.54-3.63c.1-.1.15-.23.15-.37s-.05-.27-.15-.37l-9.89-9.99c-.19-.2-.34-.43-.42-.67-.09-.25-.11-.5-.07-.73l1.61-8.5c.02-.09.06-.18.11-.26.06-.07.13-.13.22-.18.08-.05.18-.07.28-.08.1 0 .2 0 .29.03a8.84 8.84 0 0 1 3.67 2.29c5.27 5.39 10.64 10.9 16.11 16.52.05.05.11.1.18.13.07.03.14.05.21.05.07.01.14 0 .2-.03.07-.02.12-.05.17-.1l3.62-3.47c.05-.05.09-.11.11-.17.03-.06.04-.13.04-.2a.802.802 0 0 0-.05-.21.594.594 0 0 0-.13-.18L54.24 35.71c-.64-.64-.51-.96.37-.96h21.5c.14 0 .27.05.37.15.1.09.15.22.15.36l-.06 34.42c0 .13-.05.26-.14.36-.1.09-.22.15-.36.15l-38.15.06a.794.794 0 0 1-.75-.56.852.852 0 0 1-.02-.32l2.64-16.39Zm-3.26 23.95c0-.13.06-.26.16-.35s.05-.06.08-.07c.03-.01.06-.03.09-.04.06-.03.13-.04.2-.04l45.26-.24c.14 0 .26-.06.36-.15a.5.5 0 0 0 .14-.35l.12-40.12c0-.15.05-.28.14-.4.09-.11.21-.18.35-.21 2.05-.39 4.1-.39 6.14 0 .14.02.27.1.36.21.09.11.14.25.14.4l.06 51.33c0 .08-.01.16-.04.23a.64.64 0 0 1-.13.19c-.06.06-.12.1-.2.13-.07.03-.15.05-.23.05l-52.47.06c-.14 0-.27-.05-.37-.15a.479.479 0 0 1-.16-.35V76.93ZM21.05 61.15c.09-.1.22-.15.36-.15l10.16.05c.07 0 .13.01.19.04a.419.419 0 0 1 .25.27v.19l-1.32 7.97c-.03.2-.14.38-.3.51-.15.13-.36.21-.57.21l-8.38-.04c-.06 0-.13-.01-.19-.04a.62.62 0 0 1-.17-.11.5.5 0 0 1-.11-.17c-.02-.06-.04-.12-.04-.19l-.04-8.17c0-.14.06-.27.16-.37ZM6.74 68.98c2.14-1.82 4.68-3.47 7.62-4.94.04-.02.09-.03.14-.03s.09.02.13.04c.04.03.08.07.1.11.02.05.03.1.03.15l-.13 4.44c-.01.27-.13.55-.36.77-.23.23-.54.4-.89.48-1.6.37-3.75.28-6.45-.28-.56-.11-.63-.36-.19-.74Zm-.33 7.57s.01-.08.02-.12a.36.36 0 0 1 .07-.1c.03-.03.07-.05.1-.07.04-.01.08-.02.12-.02l7.66.04c.08 0 .16.03.22.09s.09.14.09.22l-.06 10.62s0 .08-.02.12a.36.36 0 0 1-.17.17c-.04.01-.08.02-.12.02l-7.66-.04s-.08 0-.12-.03a.266.266 0 0 1-.1-.06c-.02-.03-.05-.07-.06-.1-.02-.04-.03-.08-.02-.12l.05-10.62Zm-.1 74.26s-.01-.06-.01-.09l.05-14.28s.01-.09.02-.13c0-.02.01-.03.02-.05 0-.03.03-.06.04-.08s.03-.04.05-.06h.01s.09-.08.14-.1c.06-.03.12-.04.18-.04l13.88.05c.06 0 .12 0 .18.04.05.02.1.05.14.1.03.03.06.06.07.1.05.06.07.14.07.22l-.05 14.28c0 .07-.01.13-.04.18-.02.06-.05.11-.1.15-.04.04-.08.08-.14.09-.06.03-.12.04-.18.04l-13.88-.05c-.06 0-.12-.01-.18-.03a.396.396 0 0 1-.15-.1c-.02-.02-.03-.04-.05-.07-.02-.03-.03-.06-.05-.08v-.02s-.02-.05-.02-.07Zm.16 6.49c.06-.03.13-.04.2-.04l13.92-.02a.529.529 0 0 1 .53.53l.02 14.14c0 .14-.05.27-.15.37-.1.1-.23.16-.37.16l-13.92.02c-.07 0-.14-.01-.21-.04a.62.62 0 0 1-.17-.11.418.418 0 0 1-.11-.18.448.448 0 0 1-.04-.2l-.03-14.14c0-.07 0-.14.04-.2.03-.07.07-.12.11-.17.05-.05.11-.09.18-.12Zm14.63 35.83c0 .08-.02.17-.05.25-.04.07-.09.15-.15.21s-.13.1-.21.14a.69.69 0 0 1-.25.04l-13.66-.07c-.17 0-.33-.07-.46-.19a.65.65 0 0 1-.18-.46l.07-13.94c0-.17.07-.34.19-.46s.29-.19.46-.19l13.66.07c.09 0 .17.02.25.06.08.03.15.08.21.14s.11.13.14.21c.03.08.05.16.05.25l-.07 13.94Zm.01-63.77c0 .13-.05.26-.12.36-.02.04-.05.07-.08.1-.12.12-.29.19-.47.19l-13.52-.07a.65.65 0 0 1-.65-.66l.07-13.9c0-.18.07-.34.19-.46l.04-.04c.01-.01.02-.01.02-.01.05-.04.1-.08.16-.1.01 0 .02-.01.03-.01a.57.57 0 0 1 .22-.04l13.52.07c.05 0 .09.01.13.02.03 0 .06.01.09.03.06 0 .11.04.15.07.02.01.03.02.04.04.05.03.1.08.13.13.04.06.07.12.09.2.02.06.03.12.03.18l-.07 13.9Zm0-21.17c0 .08-.02.16-.05.23-.03.07-.08.13-.13.18-.01.02-.02.03-.04.04a.42.42 0 0 1-.14.09c-.08.04-.16.05-.25.05l-13.76-.07s-.09-.01-.14-.02h-.02s-.05-.01-.07-.02c-.04-.02-.07-.04-.1-.06a.574.574 0 0 1-.26-.5l.07-13.8c0-.33.27-.6.6-.6l13.76.07a.593.593 0 0 1 .42.18h.01s0 .02.02.03c0 .01.01.01.01.01.03.05.06.1.09.16.03.07.05.15.05.23l-.07 13.8Zm.1-20.68c-.08 0-.16-.04-.22-.1a.321.321 0 0 1-.1-.22l-.02-10.6c0-.05.01-.09.03-.13a.36.36 0 0 1 .17-.17c.04-.02.08-.02.12-.02l8.86-.02c.09 0 .17.03.23.09s.09.15.09.23l.02 10.6c0 .09-.03.17-.09.23s-.14.09-.23.09l-8.86.02ZM27.58 142c-.17.29-.26.27-.26-.07-.12-19.39-.12-30.81 0-34.24.14-4.07.06-8.37-.24-12.91-.01-.13 0-.27.06-.39.04-.12.11-.24.2-.34.09-.09.2-.17.32-.22.13-.05.26-.08.39-.08h5.83c.07 0 .13.01.19.04a.452.452 0 0 1 .27.27c.03.06.04.12.04.19v31.59c0 1.83-.34 3.54-1.03 5.11-1.67 3.81-3.59 7.5-5.77 11.05Zm28.09-10.42c0 .11-.05.21-.13.29-7.3 8.15-12.4 17.7-15.3 28.66-.01.04-.03.08-.06.12-.03.03-.07.06-.11.07h-.04c-.03.01-.06.01-.1.01a.694.694 0 0 1-.13-.05l-10.24-7.06a.642.642 0 0 1-.26-.38.699.699 0 0 1 .05-.45c3.6-7.2 7.2-14.38 10.78-21.55.64-1.27.86-3.78.66-7.51-.17-3.24-.23-6.33-.17-9.28.02-.82.3-.91.82-.28l14.11 16.93c.09.11.14.24.14.38 0 .03 0 .06-.02.09Zm4.88-4.64h-.15a.845.845 0 0 1-.57-.3l-15.68-18.7c-.52-.63-.37-.94.45-.94h81.41c.14 0 .27.03.38.1.12.06.21.16.28.27a.689.689 0 0 1 .01.73l-3.84 6.67a.61.61 0 0 1-.31.26c-.14.05-.3.06-.45.02-.23-.06-.47-.13-.7-.19-6.13-1.65-11.23-2.59-15.31-2.8-16.5-.86-31.52 4.04-45.04 14.7a.86.86 0 0 1-.48.18Zm15.91 6.15s-.03.07-.04.1c-.01.02-.03.04-.04.04.01 0 .02-.03.03-.04.02-.03.04-.06.05-.1Zm95.17 42.1c0 .15-.06.29-.16.39-.1.11-.24.17-.39.17l-6.08-.06s-.04-.01-.06-.01c-.01 0-.01-.01-.02-.01-.01-.01-.03-.02-.04-.03-.01-.02-.03-.04-.03-.06-.01-.02-.02-.04-.02-.06-.18-5.86-.95-11.69-2.31-17.49v-.19c.01-.03.01-.07.03-.1.01-.02.02-.05.04-.07.04-.05.08-.09.14-.12.05-.03.11-.05.17-.05l8.21-.23c.07 0 .14.01.2.03.06.03.12.07.17.12.05.05.09.11.11.18.03.06.04.14.04.21v17.38Zm44.75.04c0 .13-.04.24-.12.33-.03.04-.07.07-.11.1-.08.06-.18.09-.29.09h-7.46c-.28 0-.52-.23-.52-.52v-31.46c0-.15.06-.27.15-.37.05-.05.11-.09.17-.11.06-.03.13-.04.2-.04h7.46c.07 0 .14.01.2.04.06.02.12.06.17.11.05.05.09.11.11.17.03.06.04.13.04.2v31.46Zm12.25.2c0 .09-.03.17-.09.23h-.01c-.06.06-.14.1-.23.1h-5.34c-.18 0-.33-.15-.33-.33v-17.72s.01-.08.03-.12c.04-.12.16-.21.3-.21h5.34s.09.01.13.03c.04.01.07.04.1.07h.01c.06.06.09.14.09.23v17.72Zm1.02-25.08c-.08.17-.19.32-.31.43a.57.57 0 0 1-.38.17l-5.31.14a.91.91 0 0 1-.72-.33c-.1-.1-.18-.23-.23-.37-.05-.15-.08-.3-.08-.45l-.04-12.13c0-.14-.05-.26-.15-.36a.524.524 0 0 0-.36-.14l-49.78-.12a.66.66 0 0 0-.46.19c-.13.12-.2.29-.2.46v12.91a.491.491 0 0 1-.5.5h-10.09c-.24 0-.48-.07-.69-.2a1.01 1.01 0 0 1-.16-.13c-.13-.11-.24-.25-.31-.41-4.14-9.13-9.76-16.86-16.88-23.18-.16-.15-.2-.26-.11-.33.04-.04.12-.06.22-.08 3.43-.58 6.86-.67 10.28-.28 1.3.15 2.53.68 3.69 1.59 1.61 1.25 3.24 2.47 4.89 3.68 1.18.85 2.28 1.03 3.32.52.92-.45 1.48-1.18 1.67-2.21.18-.98-.05-1.97-.69-2.98-.31-.49-.17-.74.41-.74h8.44c.4 0 .79.11 1.12.33.34.21.6.52.76.88.85 1.89 2.05 3.68 3.61 5.37.1.11.23.2.38.25.14.05.3.07.45.06l57.91-5.91c.51-.05.66.15.44.61l-10.14 22.26Zm6 25.41a1.01 1.01 0 0 1-.77-.97v-16.98a.56.56 0 0 1 .56-.56h5.35c.13 0 .26.03.38.08.11.06.21.14.29.24.08.1.14.22.17.35.02.12.02.25-.01.38a80.489 80.489 0 0 0-2.18 13.76c.63 3.16-.63 4.39-3.79 3.7Z" class="cls-6"/>
    <path d="m76.63 35.26-.06 34.42c0 .13-.05.26-.14.36-.1.09-.22.15-.36.15l-38.15.06a.794.794 0 0 1-.75-.56.852.852 0 0 1-.02-.32l2.64-16.39c.06-.37.23-.43.49-.17l6.67 6.64c.08.07.16.13.25.18.1.04.19.06.29.07.1 0 .2-.01.28-.04.09-.03.17-.09.23-.15l3.54-3.63c.1-.1.15-.23.15-.37s-.05-.27-.15-.37l-9.89-9.99c-.19-.2-.34-.43-.42-.67-.09-.25-.11-.5-.07-.73l1.61-8.5c.02-.09.06-.18.11-.26.06-.07.13-.13.22-.18.08-.05.18-.07.28-.08.1 0 .2 0 .29.03a8.84 8.84 0 0 1 3.67 2.29c5.27 5.39 10.64 10.9 16.11 16.52.05.05.11.1.18.13.07.03.14.05.21.05.07.01.14 0 .2-.03.07-.02.12-.05.17-.1l3.62-3.47c.05-.05.09-.11.11-.17.03-.06.04-.13.04-.2a.802.802 0 0 0-.05-.21.594.594 0 0 0-.13-.18L54.24 35.71c-.64-.64-.51-.96.37-.96h21.5c.14 0 .27.05.37.15.1.09.15.22.15.36ZM116.77 70.23l-19.94-.17a.463.463 0 0 1-.45-.46V36.62c0-.62.17-.67.49-.14l20.29 33.06c.28.47.15.7-.39.69Z" class="cls-5"/>
    <path d="M370.94 54.32c-.78-.97-2.02-1.55-3.72-1.74-1.5-.16-3.28-.24-5.32-.24H155.52c-.63 0-.77.26-.43.79l31.99 49.01c.07.1.16.18.27.22.11.04.23.05.35.03 59.64-13.51 119.21-27.02 178.7-40.55 2.5-.13 4.15-1.07 4.94-2.81.82-1.79.68-3.36-.4-4.71ZM258.41 79.84s-.05.09-.09.13a.37.37 0 0 1-.14.07l-31.95 7.19c-.14.03-.3.02-.44-.04a.666.666 0 0 1-.34-.28l-10.56-16.13a.606.606 0 0 0-.19-.2c-.07-.06-.16-.09-.24-.12a.767.767 0 0 0-.26-.01c-.09.02-.17.05-.24.1l-4.12 2.79a.46.46 0 0 0-.2.33c-.03.13 0 .28.08.4l9.34 14.29s.05.1.06.16c0 .06 0 .11-.02.17-.03.05-.06.1-.1.13-.04.04-.09.07-.15.08l-28.28 6.44c-.19.05-.4.03-.59-.05a.95.95 0 0 1-.46-.38l-23.07-35.5c-.36-.55-.21-.82.44-.82l31.94.06c.15 0 .3.04.44.11.13.07.25.18.34.31l5.74 8.37c.09.12.22.21.36.24.14.04.28 0 .39-.06l3.93-2.7c.12-.08.21-.21.23-.35.03-.14 0-.3-.08-.42l-2.98-4.64c-.39-.61-.24-.92.45-.92h36.25c.16 0 .31.04.45.11.14.08.26.19.34.32l13.68 20.53s.05.09.06.14c0 .05-.01.11-.02.15Zm39.91-9.13s-.05.1-.1.14c-.04.04-.09.07-.15.08l-32.49 7.37c-.15.03-.3.02-.44-.04a.774.774 0 0 1-.35-.27l-12.57-18.91c-.18-.29-.1-.43.24-.43l37.29-.06a1.091 1.091 0 0 1 .93.5l7.6 11.28s.06.1.06.16c.01.06 0 .12-.02.18Zm52.76-11.68c-.06.08-.15.13-.27.16-14.94 3.35-30.08 6.72-45.4 10.09-.15.03-.3.02-.44-.04a.796.796 0 0 1-.35-.28l-6.58-9.94c-.18-.29-.11-.43.23-.43h52.44c.16 0 .28.03.36.1.12.09.13.21.01.34ZM359.85 81.43s-.03.04-.05.06c-.05.06-.12.1-.2.12l-14.11 3.31h-.19a.612.612 0 0 1-.12-.05c-.04-.03-.08-.06-.11-.1-.02-.02-.03-.05-.04-.07-.01-.02-.02-.05-.03-.08l-1.22-5.19a.38.38 0 0 1 .03-.26c.01-.03.03-.05.05-.08.05-.07.13-.12.22-.14l14.12-3.32s.11-.01.16 0c.04.01.08.02.11.04.04.02.08.05.11.09.02.01.03.02.03.03.02.02.03.04.04.07.02.02.02.05.03.07l1.22 5.2c.02.11.01.22-.05.3ZM332.33 87.6c.02.08.01.16-.01.23-.01.04-.03.07-.05.1a.49.49 0 0 1-.12.13s-.01.01-.02.01a.31.31 0 0 1-.13.06l-105.79 24.81c-.07.02-.14.02-.21 0-.01 0-.01-.01-.01-.01-.05 0-.08-.02-.12-.05a.265.265 0 0 1-.06-.05.418.418 0 0 1-.13-.21l-1.2-5.14a.36.36 0 0 1 .01-.23c0-.02.01-.03.02-.05s.02-.05.03-.07c.03-.05.08-.09.12-.12a.35.35 0 0 1 .14-.06l105.79-24.82c.06-.01.12-.01.18 0 .05.01.11.03.16.06s.09.07.12.12c.01.01.02.02.02.04.03.03.04.07.05.11l1.21 5.14Z" class="cls-6"/>
    <path d="m21.18 94.39-.07 13.8c0 .08-.02.16-.05.23-.03.07-.08.13-.13.18-.01.02-.02.03-.04.04a.42.42 0 0 1-.14.09c-.08.04-.16.05-.25.05l-13.76-.07s-.09-.01-.14-.02h-.02a.886.886 0 0 1-.17-.08.574.574 0 0 1-.26-.5l.07-13.8c0-.33.27-.6.6-.6l13.76.07a.593.593 0 0 1 .42.18l.03.03.01.01c.03.05.06.1.09.16.03.07.05.15.05.23ZM34.38 94.25v31.59c0 1.83-.34 3.54-1.03 5.11-1.67 3.81-3.59 7.5-5.77 11.05-.17.29-.26.27-.26-.07-.12-19.39-.12-30.81 0-34.24.14-4.07.06-8.37-.24-12.91-.01-.13 0-.27.06-.39.04-.12.11-.24.2-.34.09-.09.2-.17.32-.22.13-.05.26-.08.39-.08h5.83c.07 0 .13.01.19.04a.452.452 0 0 1 .27.27c.03.06.04.12.04.19ZM21.18 115.46l-.07 13.9c0 .13-.05.26-.12.36-.02.04-.05.07-.08.1-.12.12-.29.19-.47.19l-13.52-.07a.65.65 0 0 1-.65-.66l.07-13.9c0-.18.07-.34.19-.46l.04-.04c.01-.01.02-.01.02-.01.05-.04.1-.07.16-.1.01 0 .02-.01.03-.01a.57.57 0 0 1 .22-.04l13.52.07c.05 0 .09.01.13.02.03 0 .06.01.09.03.05.02.1.04.15.07.02.01.03.02.04.04a.8.8 0 0 1 .13.13c.04.06.07.12.09.2.02.06.03.12.03.18Z" class="cls-3"/>
    <path d="M350.74 306.38s-.09 0-.13-.01c-.39-.08-.79-.15-1.18-.22s-.79-.14-1.19-.2c-.39-.07-.79-.13-1.19-.18-.39-.06-.78-.11-1.18-.16 1.64.18 3.27.44 4.87.77Z" style="fill:#fff"/>
    <path d="m21.15 136.49-.05 14.28c0 .07-.01.13-.04.18-.02.06-.05.11-.1.15a.42.42 0 0 1-.14.09c-.06.03-.12.04-.18.04l-13.88-.05c-.13 0-.25-.05-.33-.13-.02-.02-.03-.04-.05-.07-.02-.03-.04-.06-.05-.1s-.02-.05-.02-.07c-.01-.03-.01-.06-.01-.09l.05-14.28s.01-.09.02-.13c0-.02.01-.03.02-.05 0-.03.03-.06.04-.08l.06-.06s.09-.08.14-.1c.06-.03.12-.04.18-.04l13.88.05c.06 0 .12 0 .18.04.05.02.1.05.14.1.03.03.06.06.07.1.05.06.07.14.07.22Z" class="cls-3"/>
    <g id="Body">
      <path d="m421.63 60.03-12.5-18.36a.825.825 0 0 0-.34-.3.997.997 0 0 0-.45-.11c-107.67-.14-163.57-.16-167.69-.06-2.64.06-4.95-.02-6.94-.25a.605.605 0 0 1-.52-.57l-.08-2.18-16.42-.25-.21 2.7c0 .13-.08.26-.19.35-.12.09-.28.14-.45.14l-68.52.06c-.21 0-.42-.05-.6-.15-.19-.1-.35-.25-.47-.42L123.62 6.62a.848.848 0 0 0-.34-.31.926.926 0 0 0-.44-.11H34.02c-.15 0-.3.06-.41.18-.11.11-.17.27-.17.43l.04 8.27c0 .16.06.32.18.44.11.11.26.18.41.18h76.84c.28 0 .55.07.79.2.25.13.45.33.6.56l65.76 100.88c.09.12.2.22.34.27.14.06.29.07.43.04l35.32-8.08c.08-.02.16-.02.23-.02.08.01.15.03.22.06.06.04.12.08.16.13.04.06.07.11.08.18l1.12 4.88c.02.07.02.14.01.2-.02.07-.04.14-.09.2-.04.06-.09.11-.15.15-.06.04-.13.07-.21.09l-32.98 7.76c-.1.02-.2.08-.28.15s-.14.17-.18.27c-.03.11-.05.22-.04.33.02.12.05.23.11.33l1.11 1.9c.08.14.19.26.32.34.12.09.25.13.38.13 1.37.01 3.6-.14 6.69-.45 28-2.83 56.04-5.67 84.11-8.51.98-.1 1.93-.34 2.83-.72.88-.37 1.76-.71 2.65-1.03.64-.25 1.29-.47 1.94-.69.35-.12.7-.24 1.05-.34 3.24-1.03 6.5-1.8 9.78-2.3 1.04-.16 2.08-.29 3.12-.39 2.52-.26 5.05-.36 7.6-.31.44 0 .89.02 1.33.04.44.01.88.03 1.33.07.36.02.72.04 1.09.08.53.04 1.07.09 1.6.14.42.04.85.08 1.27.14 0 0 .03 0 .04.01.4.05.79.1 1.18.16.4.05.8.11 1.19.18.4.06.8.13 1.19.2s.79.14 1.18.22c.04.01.09.01.13.01.02-.01.03-.01.05 0 .14.03.28.03.42.01.08-.01.15-.02.23-.04.15-.03.29-.08.43-.15 24.48-12.05 48.71-24 72.7-35.84 3.66-1.81 6.32-3.05 7.97-3.72.52-.21.61-.38.27-.52-.13-.05-.36-.04-.68.03a965.1 965.1 0 0 1-26.71 6.11c-.07 0-.14.02-.21 0-.07-.02-.14-.04-.2-.07a.502.502 0 0 1-.15-.14c-.04-.05-.06-.11-.08-.17l-1.05-4.91c-.03-.13.01-.27.09-.38.08-.11.21-.2.36-.23l52.71-12.58c.06-.02.11-.04.16-.08.04-.04.07-.08.1-.14.02-.05.03-.11.02-.16a.442.442 0 0 0-.06-.16Zm-89.31 27.8s-.03.07-.05.1a.49.49 0 0 1-.12.13s-.01.01-.02.01c-.03.04-.08.05-.13.06l-105.79 24.81s-.11.02-.17.01c0 0-.03-.01-.04-.01s-.01-.01-.01-.01c-.05 0-.08-.02-.12-.05a.265.265 0 0 1-.06-.05.418.418 0 0 1-.13-.21l-1.2-5.14a.36.36 0 0 1 .01-.23c0-.02.01-.03.02-.05s.02-.05.03-.07c.03-.05.08-.09.12-.12a.35.35 0 0 1 .14-.06l105.79-24.82c.06-.01.12-.01.18 0 .05.01.11.03.16.06s.09.07.12.12c.01.01.02.02.02.04.03.03.04.07.05.11l1.21 5.14c.02.08.01.16-.01.23Zm27.53-6.4s-.03.04-.05.06c-.05.06-.12.1-.2.12l-14.11 3.31h-.19a.612.612 0 0 1-.12-.05c-.04-.03-.08-.06-.11-.1-.02-.02-.03-.05-.04-.07-.01-.02-.02-.05-.03-.08l-1.22-5.19a.38.38 0 0 1 .03-.26c.01-.02.01-.03.02-.05l.03-.03c.05-.07.13-.12.22-.14l14.12-3.32s.11-.01.16 0c.04.01.08.02.11.04.04.02.08.05.11.09.02.01.03.02.03.03.02.02.03.04.04.07.02.02.02.05.03.07l1.22 5.2c.02.11.01.22-.05.3Zm11.49-22.29c-.79 1.74-2.44 2.68-4.94 2.81-59.49 13.53-119.06 27.04-178.7 40.55a.69.69 0 0 1-.35-.03.577.577 0 0 1-.27-.22l-31.99-49.01c-.34-.53-.2-.79.43-.79H361.9c2.04 0 3.82.08 5.32.24 1.7.19 2.94.77 3.72 1.74 1.08 1.35 1.22 2.92.4 4.71Z" class="cls-3"/>
      <path d="M90.15 86.85c0 .08-.01.16-.04.23a.64.64 0 0 1-.13.19c-.06.06-.12.1-.2.13-.07.03-.15.05-.23.05l-52.47.06c-.14 0-.27-.05-.37-.15a.479.479 0 0 1-.16-.35V76.88c0-.13.06-.26.16-.35.02-.02.05-.05.08-.07.03-.01.06-.03.09-.04.06-.03.13-.04.2-.04l45.26-.24c.14 0 .26-.06.36-.15a.5.5 0 0 0 .14-.35l.12-40.12c0-.15.05-.28.14-.4.09-.11.21-.18.35-.21 2.05-.39 4.1-.39 6.14 0 .14.02.27.1.36.21.09.11.14.25.14.4l.06 51.33ZM150.59 87.45h-20.53c-.17 0-.34-.07-.47-.2a.72.72 0 0 1-.2-.47l-.17-31.27c0-1.06.28-1.15.86-.26l20.73 31.79c.18.27.11.41-.22.41ZM258.43 79.8c0 .05-.01.11-.02.15a.38.38 0 0 1-.09.13.37.37 0 0 1-.14.07l-31.95 7.19c-.14.03-.3.02-.44-.04a.666.666 0 0 1-.34-.28l-10.56-16.13a.606.606 0 0 0-.19-.2c-.07-.06-.16-.09-.24-.12a.767.767 0 0 0-.26-.01c-.09.02-.17.05-.24.1l-4.12 2.79a.46.46 0 0 0-.2.33c-.03.13 0 .28.08.4l9.34 14.29s.05.1.06.16c0 .06 0 .11-.02.17-.03.05-.06.1-.1.13-.04.04-.09.07-.15.08l-28.28 6.44c-.19.05-.4.03-.59-.05a.95.95 0 0 1-.46-.38l-23.07-35.5c-.36-.55-.21-.82.44-.82l31.94.06c.15 0 .3.04.44.11.13.07.25.18.34.31l5.74 8.37c.09.12.22.21.36.24.14.04.28 0 .39-.06l3.93-2.7c.12-.08.21-.21.23-.35.03-.14 0-.3-.08-.42l-2.98-4.64c-.39-.61-.24-.92.45-.92h36.25c.16 0 .31.04.45.11.14.08.26.19.34.32l13.68 20.53s.05.09.06.14ZM298.34 70.64c.01.06 0 .12-.02.18-.02.05-.05.1-.1.14-.04.04-.09.07-.15.08l-32.49 7.37c-.15.03-.3.02-.44-.04a.774.774 0 0 1-.35-.27l-12.57-18.91c-.18-.29-.1-.43.24-.43l37.29-.06a1.091 1.091 0 0 1 .93.5l7.6 11.28s.06.1.06.16ZM351.08 59.14c-.06.08-.15.13-.27.16-14.94 3.35-30.08 6.72-45.4 10.09-.15.03-.3.02-.44-.04a.796.796 0 0 1-.35-.28l-6.58-9.94c-.18-.29-.11-.43.23-.43h52.44c.16 0 .28.03.36.1.12.09.13.21.01.34ZM123.15 76.98v9.95c0 .14-.05.27-.15.37-.1.09-.23.15-.37.15H96.48s-.04-.01-.05-.01c-.02-.01-.04-.02-.05-.04-.02-.01-.03-.03-.04-.05 0-.02-.01-.04-.01-.06V76.75c-.01-.15.05-.29.15-.39.1-.1.24-.16.38-.16h25.51c.21 0 .41.08.55.23.15.14.23.34.23.55ZM150.22 114.65l-16.18-13.38c-.25-.21-.56-.32-.89-.33-5.7-.15-12.78-.14-21.25.01-8 .15-18.43.08-31.31-.19-5.42-.11-18.55-.07-39.38.12-.06 0-.13-.01-.19-.04a.425.425 0 0 1-.17-.1c-.05-.04-.08-.1-.11-.16a.526.526 0 0 1-.04-.18l-.04-6.13c0-.15.06-.3.17-.4.11-.11.26-.17.41-.17l95.6.06c.16 0 .31.04.44.11.14.07.25.18.33.31l13.03 20.1c.67 1.03.53 1.15-.42.37ZM201.9 143.87v31.17c0 .17-.07.34-.2.46-.12.13-.3.2-.48.2l-3.77.04c-.13 0-.25.05-.35.15a.68.68 0 0 0-.18.37l-.31 2.44h-11.17c.68-2.57-.25-3.57-2.79-3-1.05.24-2.45.17-4.2-.2a.622.622 0 0 1-.35-.22.621.621 0 0 1-.14-.39l-.12-31.02a.665.665 0 0 1 .67-.67h22.72c.09 0 .18.02.26.05.08.03.15.08.22.14.06.07.11.14.14.22.04.08.05.17.05.26ZM216.4 143.72v31.46c0 .13-.04.24-.12.33-.03.04-.07.07-.11.1-.08.06-.18.09-.29.09h-7.46c-.28 0-.52-.23-.52-.52v-31.46c0-.15.06-.27.15-.37a.62.62 0 0 1 .17-.11c.06-.03.13-.04.2-.04h7.46c.07 0 .14.01.2.04a.5.5 0 0 1 .17.11c.05.05.08.1.11.17.03.06.04.13.04.2Z" class="cls-3"/>
    </g>
    <path d="M126.78 107.73c0 .13-.03.26-.1.37l-3.84 6.67a.61.61 0 0 1-.31.26c-.14.05-.3.06-.45.02-.23-.06-.47-.13-.7-.19-6.13-1.65-11.23-2.59-15.31-2.8-16.5-.86-31.52 4.04-45.04 14.7a.86.86 0 0 1-.48.18h-.15a.845.845 0 0 1-.57-.3l-15.68-18.7c-.52-.63-.37-.94.45-.94h81.41c.14 0 .27.03.38.1.12.06.21.16.28.27s.11.24.11.36ZM55.69 131.49s0 .06-.02.09c0 .11-.05.21-.13.29-7.3 8.15-12.4 17.7-15.3 28.66-.01.04-.03.08-.06.12-.03.03-.07.06-.11.07h-.04c-.03.01-.06.01-.1.01a.694.694 0 0 1-.13-.05l-10.24-7.06a.642.642 0 0 1-.26-.38.699.699 0 0 1 .05-.45c3.6-7.2 7.2-14.38 10.78-21.55.64-1.27.86-3.78.66-7.51-.17-3.24-.23-6.33-.17-9.28.02-.82.3-.91.82-.28l14.11 16.93c.09.11.14.24.14.38ZM262.51 126.14c-7.8 6.34-13.81 14.43-18.04 24.28-.1.24-.28.45-.51.6-.22.15-.49.23-.76.23h-6.3c-.1 0-.21-.03-.3-.08a.38.38 0 0 1-.13-.09c-.04-.03-.07-.07-.1-.11-.01-.03-.02-.05-.03-.07 0-.02-.03-.04-.03-.07a.453.453 0 0 1-.03-.16c-.01-.1.01-.21.05-.3l10.61-22.93c.11-.25.29-.46.52-.62.22-.16.49-.26.76-.28l13.93-1.29c1.1-.1 1.22.2.36.89ZM239.79 128.09l-10.14 22.26c-.08.17-.19.32-.31.43a.57.57 0 0 1-.38.17l-5.31.14a.91.91 0 0 1-.72-.33c-.1-.1-.18-.23-.23-.37-.05-.15-.08-.3-.08-.45l-.04-12.13c0-.14-.05-.26-.15-.36a.524.524 0 0 0-.36-.14l-49.78-.12a.66.66 0 0 0-.46.19c-.13.12-.2.29-.2.46v12.91a.491.491 0 0 1-.5.5h-10.09c-.24 0-.48-.07-.69-.2a1.01 1.01 0 0 1-.16-.13c-.13-.11-.24-.25-.31-.41-4.14-9.13-9.76-16.86-16.88-23.18-.16-.15-.2-.26-.11-.33.04-.04.12-.06.22-.08 3.43-.58 6.86-.67 10.28-.28 1.3.15 2.53.68 3.69 1.59 1.61 1.25 3.24 2.47 4.89 3.68 1.18.85 2.28 1.03 3.32.52.92-.45 1.48-1.18 1.67-2.21.18-.98-.05-1.97-.69-2.98-.31-.49-.17-.74.41-.74h8.44c.4 0 .79.11 1.12.33.34.21.6.52.76.88.85 1.89 2.05 3.68 3.61 5.37.1.11.23.2.38.25.14.05.3.07.45.06l57.91-5.91c.51-.05.66.15.44.61ZM171.63 157.81v17.38c0 .15-.06.29-.16.39-.1.11-.24.17-.39.17l-6.08-.06s-.04-.01-.06-.01c-.01 0-.01-.01-.02-.01-.01-.01-.03-.02-.04-.03-.01-.02-.03-.04-.03-.06-.01-.02-.02-.04-.02-.06-.18-5.86-.95-11.69-2.31-17.49v-.19c.01-.03.01-.07.03-.1.01-.02.02-.05.04-.07.04-.05.08-.09.14-.12.05-.03.11-.05.17-.05l8.21-.23c.07 0 .14.01.2.03.06.03.12.07.17.12.05.05.09.11.11.18.03.06.04.14.04.21ZM228.63 157.71v17.72c0 .09-.04.17-.1.23-.06.06-.14.1-.23.1h-5.34c-.18 0-.33-.15-.33-.33v-17.72s.01-.08.03-.12c.04-.12.16-.21.3-.21h5.34s.09.01.13.03c.04.01.07.04.1.07.06.06.1.14.1.23ZM241.62 158.3a80.489 80.489 0 0 0-2.18 13.76c.63 3.16-.63 4.39-3.79 3.7a1.01 1.01 0 0 1-.77-.97v-16.98a.56.56 0 0 1 .56-.56h5.35c.13 0 .26.03.38.08.11.06.21.14.29.24.08.1.14.22.17.35.02.12.02.25-.01.38Z" class="cls-8"/>
    <path d="M141.26 175.07c0 10.54-4.19 20.66-11.64 28.11s-17.57 11.65-28.12 11.65-20.66-4.19-28.11-11.65c-7.46-7.45-11.65-17.57-11.65-28.11s4.19-20.66 11.65-28.12c7.45-7.45 17.57-11.64 28.11-11.64s20.66 4.19 28.12 11.64a39.792 39.792 0 0 1 11.64 28.12Z" class="cls-1"/>
    <path d="M129.62 146.95c-7.46-7.45-17.57-11.64-28.12-11.64s-20.66 4.19-28.11 11.64c-7.46 7.46-11.65 17.57-11.65 28.12s4.19 20.66 11.65 28.11c7.45 7.46 17.57 11.65 28.11 11.65s20.66-4.19 28.12-11.65 11.64-17.57 11.64-28.11-4.19-20.66-11.64-28.12Zm-6.15 51.46c-5.86 5.72-13.03 8.59-21.53 8.61-6.15 0-11.75-1.45-16.81-4.37-5.5-3.18-9.62-7.61-12.36-13.29-2.98-6.19-3.95-12.67-2.92-19.46 1.28-8.36 5.58-15.35 12.92-20.98.09-.07.2-.12.31-.14.12-.02.24 0 .36.02.13.04.25.09.36.17.11.08.21.18.29.3l1.35 1.89c3.85-2.66 8.09-4.34 12.71-5.04-.8-2.19-.03-3.28 2.29-3.25 6.3.07 11.91 1.52 16.84 4.34 4.8 2.74 8.76 6.67 11.88 11.8 4.2 6.89 5.45 14.26 3.77 22.13-1.44 6.76-4.6 12.52-9.46 17.27Z" class="cls-4"/>
    <path d="M100.44 142.87c6.29.07 11.91 1.52 16.84 4.34 4.79 2.74 8.75 6.67 11.88 11.8 4.19 6.89 5.45 14.26 3.77 22.13-1.45 6.76-4.6 12.52-9.46 17.27-5.86 5.72-13.04 8.59-21.53 8.61-6.15 0-11.76-1.45-16.81-4.37-5.5-3.18-9.62-7.61-12.36-13.29-2.98-6.19-3.95-12.67-2.92-19.46 1.27-8.36 5.58-15.35 12.92-20.98.09-.07.19-.11.31-.13.12-.02.24-.01.36.02a1.175 1.175 0 0 1 .65.46l1.35 1.89c.73.65 1.09 1.39 1.06 2.22 0 .14-.05.29-.13.42s-.19.27-.33.38c-6.42 5.15-9.86 11.39-10.32 18.72-.43 6.93 1.51 13.15 5.81 18.64 3.94 5.03 9.22 8.04 15.85 9.03 5.3.79 10.24.19 14.82-1.81 4.95-2.17 8.85-5.65 11.68-10.45 3.05-5.17 4.19-10.6 3.43-16.27-.73-5.43-2.91-10.19-6.56-14.28-5.25-5.88-12.49-8.76-21.74-8.63-.08 0-.16-.01-.23-.04a.522.522 0 0 1-.19-.14.72.72 0 0 1-.12-.21c-.02-.07-.03-.16-.02-.24.09-.79 0-1.59-.3-2.39-.8-2.19-.04-3.28 2.29-3.25Z" class="cls-1"/>
    <path d="M98.15 146.12c.29.8.39 1.6.3 2.39 0 .08 0 .16.02.24.02.08.06.15.12.21.05.06.12.1.19.14.07.03.15.05.23.04 9.25-.13 16.49 2.75 21.74 8.63 3.65 4.09 5.83 8.85 6.56 14.28.76 5.67-.38 11.1-3.43 16.27-2.83 4.8-6.73 8.28-11.68 10.45-4.58 2-9.52 2.6-14.82 1.81-6.63-.99-11.91-4-15.85-9.03-4.3-5.49-6.24-11.71-5.81-18.64.46-7.33 3.9-13.57 10.32-18.72.14-.11.25-.24.33-.38s.12-.28.13-.42c.03-.83-.33-1.57-1.06-2.22 3.85-2.66 8.08-4.34 12.71-5.04Zm21.64 28.95c0-4.86-1.93-9.51-5.36-12.95-3.43-3.43-8.09-5.36-12.95-5.36s-9.51 1.93-12.95 5.36c-3.43 3.43-5.36 8.09-5.36 12.95s1.93 9.51 5.36 12.95c3.43 3.43 8.09 5.36 12.95 5.36s9.51-1.93 12.95-5.36c3.43-3.43 5.36-8.09 5.36-12.95Z" class="cls-3"/>
    <path d="M119.91 174.94c0 4.86-1.93 9.51-5.36 12.95-3.43 3.43-8.09 5.36-12.95 5.36s-9.51-1.93-12.95-5.36c-3.43-3.43-5.36-8.09-5.36-12.95s1.93-9.51 5.36-12.95c3.43-3.43 8.09-5.36 12.95-5.36s9.51 1.93 12.95 5.36c3.43 3.43 5.36 8.09 5.36 12.95Zm-6.1 0c0-3.23-1.28-6.33-3.57-8.61-2.28-2.28-5.38-3.57-8.61-3.57s-6.33 1.28-8.61 3.57c-2.28 2.29-3.57 5.38-3.57 8.61s1.28 6.33 3.57 8.61c2.28 2.28 5.38 3.57 8.61 3.57s6.33-1.28 8.61-3.57c2.28-2.28 3.57-5.38 3.57-8.61Z" class="cls-1"/>
    <path d="M101.6 187.12c6.73 0 12.18-5.45 12.18-12.18s-5.45-12.18-12.18-12.18-12.18 5.45-12.18 12.18 5.45 12.18 12.18 12.18Z" class="cls-3"/>
    <path d="m109.4 119.26-1.36 6.5a.78.78 0 0 0 0 .34c.02.11.06.22.12.31s.13.17.22.24c.09.06.19.11.3.13l4.82 1.02c.07.01.14.01.2 0 .07-.01.13-.03.19-.07a.494.494 0 0 0 .22-.31l1.22-6.86a.66.66 0 0 1 .11-.26c.05-.08.12-.15.2-.2.08-.05.17-.09.26-.11.09-.02.18-.01.27.01 4.87 1.23 9.5 3.17 13.9 5.82.09.05.16.12.22.21.05.09.09.19.11.29.02.11.01.22-.02.33-.03.11-.07.21-.14.31l-3.69 5.32c-.08.12-.11.26-.09.41.03.15.11.28.24.37l3.93 2.9c.06.04.13.07.2.09.07.02.15.02.21 0 .07-.01.14-.04.2-.07.06-.04.11-.09.15-.15l3.75-5.59c.07-.11.17-.2.27-.28.11-.07.22-.12.35-.15.12-.03.24-.03.36 0 .11.03.22.08.31.15 3.74 3.02 7.26 6.57 10.56 10.66.04.05.07.11.09.18.02.07.02.13.01.2 0 .07-.03.13-.06.19s-.08.11-.13.14l-5.6 3.79c-.22.15-.38.38-.44.64s0 .53.14.75l2.38 3.63c.14.22.37.36.62.41.26.05.52 0 .75-.14l5.57-3.64a.4.4 0 0 1 .18-.07c.07-.01.13 0 .2.01a.54.54 0 0 1 .32.25c2.51 4.23 4.39 8.83 5.63 13.82.02.09.03.19 0 .29a.767.767 0 0 1-.35.5c-.09.06-.2.1-.3.12l-6.64 1.41c-.07.01-.14.04-.2.09a.572.572 0 0 0-.23.37.81.81 0 0 0 0 .22l.98 4.71c.03.13.11.24.23.31.12.07.27.1.42.07l6.95-1.04c.06 0 .13 0 .19.01.06.02.12.05.17.09.05.04.09.1.12.15.03.06.05.12.05.19.43 4.95.43 9.84-.02 14.65-.01.11-.04.22-.1.31a.799.799 0 0 1-.53.39.78.78 0 0 1-.34 0l-6.7-1.27c-.08-.01-.15-.02-.23 0a.54.54 0 0 0-.37.21c-.04.06-.07.12-.08.18l-.92 5.03c-.03.15.02.32.13.45.11.14.29.24.48.28l6.46 1.33c.06.01.12.04.17.08.05.04.09.09.13.15s.05.12.06.19c0 .07 0 .14-.02.21-1.24 4.75-3.09 9.15-5.54 13.21-.07.11-.16.21-.27.29a1.016 1.016 0 0 1-.78.16c-.13-.02-.26-.08-.38-.15l-5.47-3.5a.61.61 0 0 0-.42-.09c-.14.03-.27.1-.35.22l-2.9 3.93a.495.495 0 0 0-.08.39.536.536 0 0 0 .23.34l5.96 4.27c.05.04.1.09.13.14.03.06.05.12.06.18 0 .06 0 .13-.01.19-.02.06-.05.12-.09.17-3.17 3.8-6.77 7.26-10.79 10.37-.06.05-.13.08-.21.1-.08.02-.16.02-.23 0-.08-.01-.15-.05-.22-.09a.686.686 0 0 1-.17-.17l-3.88-5.89a.536.536 0 0 0-.15-.15.663.663 0 0 0-.19-.09.375.375 0 0 0-.21 0c-.07.01-.13.04-.19.08l-4.09 2.75c-.12.08-.2.21-.23.36s0 .3.09.42l3.46 5.38c.08.13.14.27.17.42a1.086 1.086 0 0 1-.17.84c-.08.12-.19.21-.32.28-3.89 2.09-8.26 3.79-13.12 5.1-.1.03-.21.03-.32.02a.79.79 0 0 1-.3-.12.756.756 0 0 1-.23-.24.9.9 0 0 1-.13-.32l-1.3-6.72a.455.455 0 0 0-.08-.19.536.536 0 0 0-.15-.15.455.455 0 0 0-.19-.08.739.739 0 0 0-.21 0l-4.97.92c-.14.03-.27.11-.35.24-.08.13-.11.28-.08.44l1.31 7.06c.01.06.01.13 0 .19-.02.06-.05.12-.09.18a.47.47 0 0 1-.15.13c-.06.03-.13.06-.19.07-4.86.58-9.75.53-14.68-.15-.07 0-.13-.03-.18-.06a.353.353 0 0 1-.14-.13.37.37 0 0 1-.08-.18.605.605 0 0 1 0-.19l1.37-7.1c.01-.07.02-.14 0-.21a.679.679 0 0 0-.07-.2.502.502 0 0 0-.14-.15.4.4 0 0 0-.18-.07l-5.15-.84a.456.456 0 0 0-.36.11c-.11.09-.18.22-.21.36l-1.42 6.64a.476.476 0 0 1-.22.31c-.06.04-.12.06-.19.07-.07.01-.14 0-.2 0-4.77-1.03-9.2-2.88-13.28-5.55a.562.562 0 0 1-.24-.33.536.536 0 0 1 .06-.39l3.7-5.66c.09-.13.13-.28.12-.42 0-.14-.07-.26-.17-.33l-4.29-3.08a.455.455 0 0 0-.19-.08c-.07-.01-.14 0-.21 0-.07.02-.14.05-.2.09-.06.04-.11.1-.16.16l-3.89 5.84c-.04.06-.09.11-.16.15-.06.04-.13.07-.21.08-.07.01-.15 0-.22-.01a.538.538 0 0 1-.2-.1c-3.98-3.19-7.5-6.69-10.55-10.5-.04-.05-.07-.11-.08-.17s-.02-.12 0-.19a.67.67 0 0 1 .07-.18c.04-.05.08-.1.14-.14l5.83-3.86c.13-.09.22-.22.26-.36.04-.14.01-.29-.07-.41l-2.65-4.06c-.08-.12-.21-.2-.36-.23s-.31 0-.45.1l-5.85 3.67a.49.49 0 0 1-.37.07.463.463 0 0 1-.3-.19c-2.71-4.23-4.58-8.8-5.63-13.71a.604.604 0 0 1 0-.19.476.476 0 0 1 .22-.31.45.45 0 0 1 .18-.07l6.51-1.31c.16-.03.31-.12.41-.23.1-.12.14-.26.12-.39l-.43-3.1c-.07-.44-.09-.76-.06-.95.05-.47-.09-.82-.4-1.05-.22-.15-.54-.2-.97-.13-2.13.33-4.35.73-6.66 1.18a.67.67 0 0 1-.2 0 .417.417 0 0 1-.18-.08.47.47 0 0 1-.13-.15.603.603 0 0 1-.06-.19c-.55-4.55-.61-9.44-.17-14.66 0-.08.03-.15.07-.22.04-.07.09-.13.15-.18.06-.05.13-.08.21-.1.08-.02.16-.02.23 0l6.69 1.17c.16.03.32 0 .45-.06a.47.47 0 0 0 .25-.29l1.14-4.81c.02-.07.02-.14 0-.21a.496.496 0 0 0-.24-.35.667.667 0 0 0-.21-.09l-6.55-1.37c-.13-.03-.26-.08-.38-.15a.935.935 0 0 1-.28-.28.934.934 0 0 1-.14-.36.916.916 0 0 1 .02-.37c1.31-4.51 3.14-8.97 5.48-13.38a.58.58 0 0 1 .16-.19.57.57 0 0 1 .22-.11c.08-.02.16-.03.24-.01.08.01.15.04.22.09l5.61 3.93a.615.615 0 0 0 .51.11.72.72 0 0 0 .45-.29l2.81-3.98c.13-.19.18-.43.13-.66a.959.959 0 0 0-.39-.59l-5.57-3.84a.47.47 0 0 1-.13-.15.603.603 0 0 1-.06-.19c0-.07 0-.14.02-.21.02-.07.05-.14.1-.2 2.84-4.01 6.2-7.52 10.07-10.54.06-.04.12-.08.19-.1.07-.02.14-.03.2-.02.07 0 .13.02.19.06.06.03.1.07.14.12l4.06 5.73c.09.12.22.22.35.26.13.04.26.02.36-.05l4.29-2.96a.4.4 0 0 0 .14-.15.48.48 0 0 0 .07-.2c.01-.07 0-.15-.01-.22a.722.722 0 0 0-.09-.2l-3.94-5.69c-.04-.05-.06-.11-.08-.17-.01-.06-.02-.12 0-.19.01-.06.03-.12.07-.17.03-.05.08-.09.13-.12 4.36-2.74 9.04-4.76 14.03-6.05.07-.02.13-.02.2-.01s.13.03.19.07c.06.04.11.08.15.13.04.05.07.11.08.18l1.43 6.94c.02.12.09.22.18.29.09.07.21.1.32.08l4.96-.83c.07-.01.14-.04.2-.07.06-.04.11-.08.15-.14s.07-.12.09-.18a.34.34 0 0 0 0-.2l-1.22-6.89a.97.97 0 0 1 0-.34c.02-.11.07-.21.13-.3a.69.69 0 0 1 .23-.22.63.63 0 0 1 .29-.1c5.12-.6 10.16-.55 15.11.15.07 0 .13.03.19.06s.11.08.15.13c.04.05.07.11.08.18.01.06.01.13 0 .19Zm31.97 55.65c0-10.54-4.19-20.66-11.65-28.11-7.46-7.46-17.57-11.65-28.12-11.65s-20.66 4.19-28.11 11.65c-7.46 7.46-11.65 17.57-11.65 28.11a39.777 39.777 0 0 0 39.76 39.77 39.777 39.777 0 0 0 39.77-39.77Z" class="cls-7"/>
    <path d="M276.76 145.36a39.789 39.789 0 0 1 28.68-10.16 39.746 39.746 0 0 1 37.62 41.79 39.743 39.743 0 0 1-41.78 37.63 39.772 39.772 0 0 1-27.46-13.1 39.82 39.82 0 0 1-10.17-28.69 39.806 39.806 0 0 1 13.11-27.47Z" class="cls-1"/>
    <path d="M263.65 172.83a39.82 39.82 0 0 0 10.17 28.69 39.754 39.754 0 0 0 56.15 2.94 39.723 39.723 0 0 0 13.09-27.47 39.76 39.76 0 0 0-10.15-28.69 39.754 39.754 0 0 0-56.15-2.94 39.806 39.806 0 0 0-13.11 27.47Zm42.36-29.86c8.17.53 15.1 3.94 20.8 10.24 4.12 4.56 6.78 9.7 8 15.42 1.32 6.22.78 12.24-1.61 18.08-2.61 6.36-6.77 11.41-12.51 15.19-7.07 4.64-15.14 6.12-24.24 4.44a.727.727 0 0 1-.31-.14.886.886 0 0 1-.23-.28c-.06-.12-.1-.25-.11-.38-.01-.14 0-.28.03-.42l.5-2.27a30.035 30.035 0 0 1-12.25-6.07c-1.09 2.06-2.42 2.22-3.95.47-4.16-4.73-6.84-9.87-8.04-15.42-1.18-5.4-.9-10.97.82-16.72 2.31-7.73 6.95-13.59 13.92-17.61 5.99-3.45 12.38-4.96 19.16-4.53Z" class="cls-4"/>
    <path d="M280.14 197.24c-4.16-4.73-6.84-9.87-8.04-15.42-1.17-5.4-.9-10.97.82-16.72 2.31-7.72 6.95-13.59 13.92-17.61 5.99-3.45 12.38-4.96 19.16-4.53 8.17.53 15.11 3.94 20.8 10.24 4.12 4.57 6.79 9.71 8 15.42 1.32 6.22.78 12.24-1.61 18.08-2.6 6.35-6.77 11.42-12.51 15.19-7.06 4.65-15.14 6.13-24.24 4.44a.785.785 0 0 1-.31-.14.935.935 0 0 1-.34-.66c-.02-.14 0-.28.02-.41l.5-2.27c0-.98.31-1.74.94-2.27a1.06 1.06 0 0 1 .9-.19c8.12 1.33 15.06-.29 20.82-4.86 5.44-4.32 8.76-9.92 9.96-16.79 1.1-6.29-.2-12.23-3.9-17.82-2.96-4.47-6.71-7.74-11.26-9.8-4.92-2.23-10.12-2.79-15.58-1.69-5.88 1.2-10.68 3.98-14.39 8.34-3.55 4.17-5.62 8.98-6.22 14.43-.86 7.83 1.85 15.14 8.13 21.93.05.06.09.12.12.2.03.07.03.15.03.23 0 .08-.03.16-.07.22-.04.07-.09.13-.16.18a5.18 5.18 0 0 0-1.58 1.82c-1.09 2.06-2.41 2.22-3.95.47Z" class="cls-1"/>
    <path d="M284.09 196.77c.4-.75.92-1.36 1.58-1.82a.69.69 0 0 0 .16-.18c.04-.07.07-.15.07-.22 0-.08 0-.16-.03-.23a.817.817 0 0 0-.12-.2c-6.28-6.79-8.99-14.1-8.13-21.93.6-5.45 2.68-10.26 6.22-14.43 3.71-4.36 8.5-7.14 14.39-8.34 5.46-1.11 10.66-.54 15.58 1.69 4.55 2.07 8.3 5.33 11.26 9.8 3.7 5.59 4.99 11.53 3.9 17.82-1.2 6.87-4.53 12.47-9.96 16.79-5.76 4.56-12.7 6.18-20.82 4.86-.17-.03-.34-.03-.5 0s-.29.1-.4.19c-.63.53-.95 1.29-.94 2.27-4.55-1.08-8.63-3.1-12.25-6.07Zm7.03-35.45c-3.61 3.25-5.78 7.8-6.03 12.65-.25 4.85 1.43 9.6 4.68 13.21s7.8 5.78 12.65 6.03c4.85.25 9.6-1.43 13.21-4.68 3.61-3.25 5.78-7.8 6.03-12.65.25-4.85-1.43-9.6-4.68-13.21-3.25-3.61-7.8-5.78-12.65-6.03-4.85-.25-9.6 1.43-13.21 4.68Z" class="cls-3"/>
    <path d="M290.95 161.31c3.61-3.25 8.36-4.93 13.21-4.68 4.85.25 9.4 2.42 12.65 6.03 3.25 3.61 4.93 8.36 4.68 13.21-.25 4.85-2.42 9.4-6.03 12.65s-8.36 4.93-13.21 4.68c-4.85-.25-9.4-2.42-12.65-6.03a18.328 18.328 0 0 1-4.68-13.21c.25-4.85 2.42-9.4 6.03-12.65Zm4.07 4.54a12.182 12.182 0 0 0-.9 17.2 12.182 12.182 0 0 0 17.2.9 12.182 12.182 0 0 0 .9-17.2 12.182 12.182 0 0 0-17.2-.9Z" class="cls-1"/>
    <path d="M312.25 166.77c-4.5-5-12.2-5.4-17.2-.9s-5.4 12.2-.9 17.2 12.2 5.4 17.2.9 5.4-12.2.9-17.2Z" class="cls-3"/>
    <path d="m256.6 206.38 5.74-3.34a.881.881 0 0 0 .4-.52c.03-.11.04-.22.03-.32a.761.761 0 0 0-.1-.3l-2.47-4.26a.508.508 0 0 0-.31-.24c-.06-.02-.13-.02-.19-.02-.07 0-.13.03-.18.06l-5.91 3.68c-.08.05-.17.08-.27.1-.09.02-.19.01-.28-.01a.582.582 0 0 1-.25-.12.91.91 0 0 1-.18-.21c-2.34-4.44-4-9.18-4.98-14.22a.61.61 0 0 1 .01-.3c.03-.1.08-.19.15-.28.07-.08.15-.15.25-.21.1-.05.21-.09.32-.1l6.42-.82a.54.54 0 0 0 .36-.21c.09-.12.13-.27.12-.42l-.47-4.86c0-.07-.03-.14-.07-.21a.552.552 0 0 0-.14-.17c-.06-.04-.12-.08-.19-.1a.497.497 0 0 0-.21-.01l-6.66.95c-.13.02-.26.01-.39-.02a.822.822 0 0 1-.34-.16.78.78 0 0 1-.24-.27.79.79 0 0 1-.1-.33c-.26-4.8.03-9.79.86-14.98.01-.07.04-.13.07-.19.04-.06.08-.11.14-.14.05-.04.12-.06.18-.08a.67.67 0 0 1 .2 0l6.56 1.63c.26.06.54.03.77-.11s.4-.35.46-.6l1.11-4.2c.06-.25.03-.51-.11-.74a1.02 1.02 0 0 0-.61-.46l-6.43-1.7a.556.556 0 0 1-.17-.09.398.398 0 0 1-.12-.16.455.455 0 0 1-.05-.2c0-.07 0-.14.02-.21 1.46-4.7 3.63-9.17 6.5-13.43.05-.08.13-.15.21-.2.09-.05.18-.08.29-.09a.892.892 0 0 1 .61.17l5.49 3.99c.06.04.13.07.2.09.07.02.15.02.22 0 .07-.01.14-.04.21-.08s.12-.09.16-.15l2.84-3.88c.08-.1.1-.24.08-.38a.611.611 0 0 0-.23-.36l-5.42-4.47a.443.443 0 0 1-.12-.15.592.592 0 0 1-.05-.19c0-.07 0-.13.03-.2.02-.06.06-.12.11-.17 3.39-3.64 7.02-6.9 10.9-9.79.09-.07.19-.11.3-.14.11-.02.22-.02.33 0 .11.02.21.07.31.13.09.07.17.15.23.25l3.54 5.83c.04.07.09.13.15.17.06.05.12.08.19.11.07.02.14.03.21.02.07 0 .13-.03.19-.07l4.35-2.68c.13-.08.22-.23.25-.4a.942.942 0 0 0-.11-.54l-3.33-5.69a.478.478 0 0 1-.06-.18c0-.06 0-.13.02-.19s.06-.12.1-.17c.05-.05.1-.09.16-.13 4.36-2.25 8.87-3.83 13.52-4.72.13-.03.27-.02.4 0 .13.03.25.09.36.17s.2.18.28.3c.07.12.12.25.14.39l1.06 6.41c.02.15.1.28.21.37.11.09.26.13.4.12l4.86-.47c.07 0 .13-.03.19-.06a.521.521 0 0 0 .26-.54l-.81-7.29c0-.06 0-.13.02-.19s.05-.12.09-.17c.04-.05.09-.09.15-.12s.12-.05.19-.05c4.95-.18 9.92.18 14.93 1.08.08.01.15.04.21.09a.584.584 0 0 1 .24.39c.01.08 0 .16-.01.24l-1.78 6.82c-.02.07-.02.14-.01.21 0 .07.03.14.06.2s.08.12.14.16c.05.04.12.07.18.09l4.78 1.2c.14.03.29 0 .42-.07.13-.08.22-.2.25-.35l1.68-6.17a1.205 1.205 0 0 1 .53-.71c.13-.07.27-.12.41-.14.14-.02.29 0 .42.05 4.15 1.49 8.34 3.6 12.57 6.34.09.06.17.13.23.22s.1.19.11.3c.02.11 0 .22-.02.33-.03.11-.08.21-.15.31l-4.12 5.46c-.04.06-.07.12-.09.19-.02.07-.02.14-.01.21 0 .07.03.14.07.2a.7.7 0 0 0 .14.16l4.01 3.08c.12.09.26.12.41.1.15-.03.29-.11.38-.23l4.37-5.7c.04-.05.09-.09.15-.12s.12-.05.19-.05.13 0 .2.03c.07.02.13.06.18.1 3.68 3.22 6.92 6.89 9.71 11.01.04.05.06.12.08.18.01.06.01.13 0 .2a.476.476 0 0 1-.22.31l-6.19 3.73c-.06.04-.12.09-.16.14-.04.06-.08.12-.1.19-.02.07-.03.13-.02.2 0 .07.03.13.07.18l2.82 4.39c.07.1.18.17.32.19.14.02.28-.01.41-.09l5.88-3.39c.06-.03.12-.05.18-.06.06 0 .13 0 .2.02.06.02.12.05.18.09.05.04.1.09.13.15 2.43 4.24 4.01 8.77 4.76 13.58.02.14-.01.29-.09.4-.08.11-.19.19-.33.21l-6.68 1.04c-.15.02-.29.09-.39.19-.1.1-.14.22-.13.35l.58 5.25c0 .07.03.13.07.19.04.06.09.11.14.15.06.04.13.07.2.09.07.02.15.02.22 0l6.94-1.02c.07-.01.15 0 .22.01.07.02.14.05.19.1.06.05.1.11.14.17.03.07.05.14.06.21.29 5.09.04 10.05-.74 14.87-.01.06-.03.12-.07.17s-.08.1-.14.13c-.05.03-.12.06-.18.07-.06 0-.13 0-.19-.01l-6.77-1.75a.607.607 0 0 0-.44.05c-.13.07-.22.19-.26.32l-1.24 4.69c-.03.14 0 .29.08.42s.22.22.37.27l6.64 1.89c.13.04.23.12.3.23.07.11.09.23.06.35a41.166 41.166 0 0 1-6.42 13.36c-.04.05-.08.09-.14.13-.05.03-.12.05-.18.06-.06 0-.13 0-.19-.01a.757.757 0 0 1-.18-.09l-5.33-3.96a.731.731 0 0 0-.44-.15c-.15 0-.28.06-.37.17l-2.02 2.39c-.28.34-.5.57-.67.68-.38.28-.55.62-.51 1 .03.27.22.54.55.81 1.67 1.36 3.45 2.74 5.33 4.16.05.04.1.09.13.15s.05.12.06.19c0 .07 0 .13-.02.2-.02.06-.05.12-.1.17-3.01 3.46-6.61 6.77-10.78 9.94-.06.05-.13.08-.21.1-.08.02-.16.02-.23 0a.469.469 0 0 1-.22-.09.523.523 0 0 1-.16-.17l-3.61-5.75a.808.808 0 0 0-.34-.3.499.499 0 0 0-.38 0l-4.34 2.37c-.06.03-.12.08-.16.14-.04.06-.07.12-.09.19a.41.41 0 0 0 0 .22c.01.07.04.15.07.21l3.36 5.78c.07.12.12.25.14.38.02.13.01.27-.02.4a.84.84 0 0 1-.17.34.8.8 0 0 1-.29.23c-4.23 2.04-8.76 3.67-13.61 4.88-.08.02-.16.02-.24.01a.505.505 0 0 1-.23-.09.462.462 0 0 1-.17-.17.584.584 0 0 1-.08-.22l-.83-6.8c0-.09-.04-.18-.08-.25s-.1-.15-.18-.2a.545.545 0 0 0-.24-.12.822.822 0 0 0-.27-.02l-4.84.57c-.23.03-.44.15-.58.35-.14.19-.2.44-.17.68l.87 6.71c0 .07 0 .13-.02.2-.02.06-.06.12-.1.18-.05.05-.1.1-.17.13a.83.83 0 0 1-.21.06c-4.88.57-9.73.43-14.57-.43a.679.679 0 0 1-.2-.07.502.502 0 0 1-.15-.14.37.37 0 0 1-.08-.18.407.407 0 0 1 0-.19l1.54-6.85a.69.69 0 0 0-.04-.43.442.442 0 0 0-.28-.24l-5.07-1.21a.375.375 0 0 0-.21 0c-.07.01-.14.04-.2.08a.607.607 0 0 0-.25.36l-1.59 6.74a.38.38 0 0 1-.08.17c-.04.05-.08.1-.13.13s-.11.05-.17.06c-.06 0-.12 0-.18-.01a49.532 49.532 0 0 1-13.88-6.38c-.06-.04-.1-.09-.14-.14a.64.64 0 0 1-.08-.19.67.67 0 0 1 0-.2.37.37 0 0 1 .08-.18l4.2-5.71c.07-.1.11-.21.09-.33a.433.433 0 0 0-.15-.29l-3.94-3.13a.81.81 0 0 0-.18-.1c-.07-.02-.14-.03-.2-.02s-.13.03-.19.06a.47.47 0 0 0-.15.13l-4.3 5.52c-.07.09-.16.16-.25.22-.1.06-.2.09-.31.11-.11.01-.22 0-.32-.02a.72.72 0 0 1-.27-.15c-3.87-3.4-7.21-7.18-10-11.33-.04-.06-.06-.12-.08-.18a.67.67 0 0 1 0-.2.476.476 0 0 1 .22-.31Zm19.96-61a39.77 39.77 0 0 0-2.94 56.16 39.77 39.77 0 0 0 56.16 2.94 39.77 39.77 0 0 0 2.94-56.16 39.77 39.77 0 0 0-56.16-2.94Z" class="cls-7"/>
  </g>
</svg>